<?xml version="1.0" encoding="UTF-8" standalone="no" ?>
<!DOCTYPE svg PUBLIC "-//W3C//DTD SVG 1.1//EN"
    "http://www.w3.org/Graphics/SVG/1.1/DTD/svg11.dtd"
>
<!--

* 6x6 table of symbols.
* Each of 6 symbols has grid of size 2x4.
* Each of 7 spaces around symbols has size 1x1.
* 6*2 + 7*1 = 19, 6*4 + 7*1 = 31, so canvas is 19x31.
* We position each symbol in absolute coordinates:
    * X: 1, 4, 7, 10, 13, 16.
    * Y: 1, 6, 11, 16, 21, 26.
* We draw each symbol with relative coordinates:
    * X: 0, 1, 2.
    * Y: 0, 1, 2, 3, 4.
* Docs: https://developer.mozilla.org/en-US/docs/Web/SVG/Element

-->
<svg xmlns="http://www.w3.org/2000/svg" version="1.1" viewBox="0 0 19 31">
    <rect
        x="0" y="0"
        width="19" height="31"
        fill="#FFF" stroke="none"
    />
    <path
        fill="none" stroke="#333"
        stroke-width="0.3"
        stroke-linecap="round"
        stroke-linejoin="round"
        d="

M1,1 m0,4 v-4 h2 v4 m0,-2 h-2
M4,1 l2,1 l-2,1 l2,1 l-2,1 v-4
M7,1 m2,0 h-2 v4 h2
M10,1 l2,2 l-2,2 v-4
M13,1 m2,0 h-2 v4 h2 m-2,-2 h2
M16,1 m2,0 h-2 v4 m0,-2 h2

M1,6 m2,0 h-2 v4 h2 v-2 h-1
M4,6 v4 m0,-2 h2 m0,-2 v4
M7,6 h2 m-1,0 v4 m-1,0 h2
M10,6 m2,0 v4 h-2 v-1
M13,6 v4 m0,-2 l2,-2 m-2,2 l2,2
M16,6 v4 h2

M1,11 m0,4 v-4 l1,2 l1,-2 v4
M4,11 m0,4 v-4 l2,4 v-4
M7,11 h2 v4 h-2 v-4
M10,11 m0,4 v-4 h2 v2 h-2
M13,11 h2 v4 h-2 v-4 m2,4 l-1,-1
M16,11 m0,4 v-4 h2 v2 h-2 l2,2

M1,16 m2,1 l-1,-1 l-1,1 l2,2 l-1,1 l-1,-1
M4,16 h2 m-1,0 v4
M7,16 v4 h2 v-4
M10,16 l1,4 l1,-4
M13,16 v4 l1,-2 l1,2 v-4
M16,16 l2,4 m-2,0 l2,-4

M1,21 l1,2 l1,-2 m-1,2 v2
M4,21 h2 l-2,4 h2
M7,21 h2 v4 h-2 v-4 m1,0 v4
M10,21 h1 v4 m-1,0 h2
M13,21 h2 v2 h-2 v2 h2
M16,21 h2 v4 h-2 m0,-2 h2

M1,26 v2 h2 m0,-2 v4
M4,26 m2,0 h-2 v2 h2 v2 h-2
M7,26 m2,0 h-2 v4 h2 v-2 h-2
M10,26 h1 v4 m-1,-2 h2
M13,26 h2 v4 h-2 v-4 m0,2 h2
M16,26 m0,4 h2 v-4 h-2 v2 h2

        "
    />
</svg>
