<?xml version="1.0" encoding="UTF-8" standalone="no" ?>
<!DOCTYPE svg PUBLIC "-//W3C//DTD SVG 1.1//EN"
    "http://www.w3.org/Graphics/SVG/1.1/DTD/svg11.dtd"
>
<!--

* "Whyolet Font" phrase contains 12 letters, including space, 2x4 size each.
* We also need 13 spaces between letters, and 1 space above and below, 1x1 size each.
* Small-caps style scales big letters to 2x6 size each, to keep it monospace.
* 12*2 + 13*1 = 37.
* 1 + 6 + 1 = 8.
* So canvas is 37x8.
* Letters are copied from `whyolet-font-alphanumericals.svg`
* Docs: https://developer.mozilla.org/en-US/docs/Web/SVG/Element

-->
<svg xmlns="http://www.w3.org/2000/svg" version="1.1" viewBox="0 0 37 8">
    <rect
        x="0" y="0"
        width="37" height="8"
        fill="#FFF" stroke="none"
    />
    <path
        fill="none" stroke="#333"
        stroke-width="0.3"
        stroke-linecap="round"
        stroke-linejoin="round"
        d="

M1,1 v6 l1,-3 l1,3 v-6
M4,3 v4 m0,-2 h2 m0,-2 v4
M7,3 l1,2 l1,-2 m-1,2 v2
M10,3 h2 v4 h-2 v-4
M13,3 v4 h2
M16,3 m2,0 h-2 v4 h2 m-2,-2 h2
M19,3 h2 m-1,0 v4

M25,1 m2,0 h-2 v6 m0,-3 h2
M28,3 h2 v4 h-2 v-4
M31,3 m0,4 v-4 l2,4 v-4
M34,3 h2 m-1,0 v4

        "
    />
</svg>
